<svg xmlns="http://www.w3.org/2000/svg" xmlns:xlink="http://www.w3.org/1999/xlink" width="645" zoomAndPan="magnify" viewBox="0 0 483.75 483.749988" height="645" preserveAspectRatio="xMidYMid meet" version="1.0"><path fill="#3747d6" d="M 21.878906 1.09375 C 15.601562 1.09375 9.628906 3.789062 5.476562 8.492188 C 1.324219 13.199219 -0.609375 19.457031 0.167969 25.683594 L 43.925781 375.730469 C 44.832031 382.988281 49.308594 389.3125 55.847656 392.585938 L 230.871094 480.097656 C 237.03125 483.175781 244.28125 483.175781 250.441406 480.097656 L 425.460938 392.585938 C 432.007812 389.3125 436.480469 382.988281 437.386719 375.730469 L 481.144531 25.683594 C 481.921875 19.457031 479.988281 13.199219 475.835938 8.492188 C 471.683594 3.789062 465.710938 1.09375 459.433594 1.09375 Z M 21.878906 1.09375 " fill-opacity="1" fill-rule="nonzero"/><path fill="#90caea" d="M 109.390625 66.726562 L 393.804688 66.726562 C 403.949219 66.726562 412.765625 73.703125 415.09375 83.578125 C 417.425781 93.453125 412.660156 103.636719 403.585938 108.171875 L 245.820312 187.054688 L 371.925781 187.054688 C 378.414062 187.054688 384.5625 189.933594 388.722656 194.914062 C 392.878906 199.894531 394.609375 206.464844 393.449219 212.847656 L 371.570312 333.175781 C 370.445312 339.371094 366.703125 344.78125 361.304688 348.023438 L 251.914062 413.65625 C 244.984375 417.8125 236.332031 417.8125 229.402344 413.65625 L 120.011719 348.023438 C 114.515625 344.722656 110.742188 339.179688 109.6875 332.859375 L 98.75 267.222656 L 141.910156 260.03125 L 151.1875 315.699219 L 240.660156 369.382812 L 330.292969 315.597656 L 345.710938 230.8125 L 153.144531 230.8125 C 143 230.8125 134.183594 223.835938 131.855469 213.960938 C 129.523438 204.085938 134.285156 193.902344 143.363281 189.363281 L 301.125 110.484375 L 109.390625 110.484375 Z M 109.390625 66.726562 " fill-opacity="1" fill-rule="evenodd"/><path fill="#3747d6" d="M 21.878906 1.09375 C 15.601562 1.09375 9.628906 3.789062 5.476562 8.492188 C 1.324219 13.199219 -0.609375 19.457031 0.167969 25.683594 L 43.925781 375.730469 C 44.832031 382.988281 49.308594 389.3125 55.847656 392.585938 L 230.871094 480.097656 C 237.03125 483.175781 244.28125 483.175781 250.441406 480.097656 L 425.460938 392.585938 C 432.007812 389.3125 436.480469 382.988281 437.386719 375.730469 L 481.144531 25.683594 C 481.921875 19.457031 479.988281 13.199219 475.835938 8.492188 C 471.683594 3.789062 465.710938 1.09375 459.433594 1.09375 Z M 21.878906 1.09375 " fill-opacity="1" fill-rule="nonzero"/><path fill="#90caea" d="M 109.390625 66.726562 L 393.804688 66.726562 C 403.949219 66.726562 412.765625 73.703125 415.09375 83.578125 C 417.425781 93.453125 412.660156 103.636719 403.585938 108.171875 L 245.820312 187.054688 L 371.925781 187.054688 C 378.414062 187.054688 384.5625 189.933594 388.722656 194.914062 C 392.878906 199.894531 394.609375 206.464844 393.449219 212.847656 L 371.570312 333.175781 C 370.445312 339.371094 366.703125 344.78125 361.304688 348.023438 L 251.914062 413.65625 C 244.984375 417.8125 236.332031 417.8125 229.402344 413.65625 L 120.011719 348.023438 C 114.515625 344.722656 110.742188 339.179688 109.6875 332.859375 L 98.75 267.222656 L 141.910156 260.03125 L 151.1875 315.699219 L 240.660156 369.382812 L 330.292969 315.597656 L 345.710938 230.8125 L 153.144531 230.8125 C 143 230.8125 134.183594 223.835938 131.855469 213.960938 C 129.523438 204.085938 134.285156 193.902344 143.363281 189.363281 L 301.125 110.484375 L 109.390625 110.484375 Z M 109.390625 66.726562 " fill-opacity="1" fill-rule="evenodd"/></svg>