<svg xmlns="http://www.w3.org/2000/svg" xmlns:xlink="http://www.w3.org/1999/xlink" width="569" zoomAndPan="magnify" viewBox="0 0 426.75 602.249986" height="803" preserveAspectRatio="xMidYMid meet" version="1.0"><defs><clipPath id="f7df893781"><path d="M 0.140625 118 L 426.359375 118 L 426.359375 600.75 L 0.140625 600.75 Z M 0.140625 118 " clip-rule="nonzero"/></clipPath><clipPath id="e7382cdf9e"><path d="M 0.140625 118 L 426.359375 118 L 426.359375 600.75 L 0.140625 600.75 Z M 0.140625 118 " clip-rule="nonzero"/></clipPath></defs><g clip-path="url(#f7df893781)"><path fill="#e44d26" d="M 426.242188 118.058594 L 387.449219 552.414062 L 213.066406 600.726562 L 39.167969 552.480469 L 0.417969 118.058594 L 426.234375 118.050781 L 426.25 118.050781 Z M 426.242188 118.058594 " fill-opacity="1" fill-rule="nonzero"/></g><path fill="#f16529" d="M 213.332031 563.800781 L 354.25 524.761719 L 387.398438 153.582031 L 213.332031 153.578125 Z M 213.332031 563.800781 " fill-opacity="1" fill-rule="nonzero"/><path fill="#ebebeb" d="M 137.917969 260.136719 L 213.332031 260.136719 L 213.332031 206.851562 L 79.660156 206.851562 L 80.933594 221.148438 L 94.035156 367.976562 L 213.332031 367.976562 L 213.332031 314.707031 L 142.792969 314.707031 Z M 137.917969 260.136719 " fill-opacity="1" fill-rule="nonzero"/><path fill="#ebebeb" d="M 149.933594 394.617188 L 96.417969 394.617188 L 103.886719 478.28125 L 213.082031 508.578125 L 213.332031 508.511719 L 213.332031 453.074219 L 213.101562 453.140625 L 153.730469 437.109375 Z M 149.933594 394.617188 " fill-opacity="1" fill-rule="nonzero"/><path fill="#000000" d="M 40.039062 0 L 67.128906 0 L 67.128906 26.75 L 91.910156 26.75 L 91.910156 0 L 119.003906 0 L 119.003906 81.007812 L 91.910156 81.007812 L 91.910156 53.882812 L 67.128906 53.882812 L 67.128906 81.007812 L 40.039062 81.007812 Z M 40.039062 0 " fill-opacity="1" fill-rule="nonzero"/><path fill="#000000" d="M 154.628906 26.863281 L 130.78125 26.863281 L 130.78125 0 L 205.589844 0 L 205.589844 26.863281 L 181.71875 26.863281 L 181.71875 81.007812 L 154.632812 81.007812 L 154.632812 26.863281 Z M 154.628906 26.863281 " fill-opacity="1" fill-rule="nonzero"/><path fill="#000000" d="M 217.457031 0 L 245.699219 0 L 263.074219 28.464844 L 280.4375 0 L 308.695312 0 L 308.695312 81.007812 L 281.722656 81.007812 L 281.722656 40.855469 L 263.074219 69.660156 L 262.609375 69.660156 L 243.964844 40.855469 L 243.964844 81.007812 L 217.457031 81.007812 Z M 217.457031 0 " fill-opacity="1" fill-rule="nonzero"/><path fill="#000000" d="M 322.183594 0 L 349.273438 0 L 349.273438 54.234375 L 387.382812 54.234375 L 387.382812 81.007812 L 322.183594 81.007812 Z M 322.183594 0 " fill-opacity="1" fill-rule="nonzero"/><path fill="#ffffff" d="M 213.148438 367.976562 L 278.800781 367.976562 L 272.605469 437.074219 L 213.148438 453.125 L 213.148438 508.546875 L 322.433594 478.28125 L 323.234375 469.273438 L 335.769531 329.003906 L 337.070312 314.707031 L 213.148438 314.707031 Z M 213.148438 367.976562 " fill-opacity="1" fill-rule="nonzero"/><path fill="#ffffff" d="M 213.148438 260.003906 L 213.148438 260.136719 L 341.914062 260.136719 L 342.980469 248.160156 L 345.417969 221.148438 L 346.6875 206.851562 L 213.148438 206.851562 Z M 213.148438 260.003906 " fill-opacity="1" fill-rule="nonzero"/><g clip-path="url(#e7382cdf9e)"><path fill="#e44d26" d="M 426.242188 118.058594 L 387.449219 552.414062 L 213.066406 600.726562 L 39.167969 552.480469 L 0.417969 118.058594 L 426.234375 118.050781 L 426.25 118.050781 Z M 426.242188 118.058594 " fill-opacity="1" fill-rule="nonzero"/></g><path fill="#f16529" d="M 213.332031 563.800781 L 354.25 524.761719 L 387.398438 153.582031 L 213.332031 153.578125 Z M 213.332031 563.800781 " fill-opacity="1" fill-rule="nonzero"/><path fill="#ebebeb" d="M 137.917969 260.136719 L 213.332031 260.136719 L 213.332031 206.851562 L 79.660156 206.851562 L 80.933594 221.148438 L 94.035156 367.976562 L 213.332031 367.976562 L 213.332031 314.707031 L 142.792969 314.707031 Z M 137.917969 260.136719 " fill-opacity="1" fill-rule="nonzero"/><path fill="#ebebeb" d="M 149.933594 394.617188 L 96.417969 394.617188 L 103.886719 478.28125 L 213.082031 508.578125 L 213.332031 508.511719 L 213.332031 453.074219 L 213.101562 453.140625 L 153.730469 437.109375 Z M 149.933594 394.617188 " fill-opacity="1" fill-rule="nonzero"/><path fill="#000000" d="M 40.039062 0 L 67.128906 0 L 67.128906 26.75 L 91.910156 26.75 L 91.910156 0 L 119.003906 0 L 119.003906 81.007812 L 91.910156 81.007812 L 91.910156 53.882812 L 67.128906 53.882812 L 67.128906 81.007812 L 40.039062 81.007812 Z M 40.039062 0 " fill-opacity="1" fill-rule="nonzero"/><path fill="#000000" d="M 154.628906 26.863281 L 130.78125 26.863281 L 130.78125 0 L 205.589844 0 L 205.589844 26.863281 L 181.71875 26.863281 L 181.71875 81.007812 L 154.632812 81.007812 L 154.632812 26.863281 Z M 154.628906 26.863281 " fill-opacity="1" fill-rule="nonzero"/><path fill="#000000" d="M 217.457031 0 L 245.699219 0 L 263.074219 28.464844 L 280.4375 0 L 308.695312 0 L 308.695312 81.007812 L 281.722656 81.007812 L 281.722656 40.855469 L 263.074219 69.660156 L 262.609375 69.660156 L 243.964844 40.855469 L 243.964844 81.007812 L 217.457031 81.007812 Z M 217.457031 0 " fill-opacity="1" fill-rule="nonzero"/><path fill="#000000" d="M 322.183594 0 L 349.273438 0 L 349.273438 54.234375 L 387.382812 54.234375 L 387.382812 81.007812 L 322.183594 81.007812 Z M 322.183594 0 " fill-opacity="1" fill-rule="nonzero"/><path fill="#ffffff" d="M 213.148438 367.976562 L 278.800781 367.976562 L 272.605469 437.074219 L 213.148438 453.125 L 213.148438 508.546875 L 322.433594 478.28125 L 323.234375 469.273438 L 335.769531 329.003906 L 337.070312 314.707031 L 213.148438 314.707031 Z M 213.148438 367.976562 " fill-opacity="1" fill-rule="nonzero"/><path fill="#ffffff" d="M 213.148438 260.003906 L 213.148438 260.136719 L 341.914062 260.136719 L 342.980469 248.160156 L 345.417969 221.148438 L 346.6875 206.851562 L 213.148438 206.851562 Z M 213.148438 260.003906 " fill-opacity="1" fill-rule="nonzero"/></svg>